<svg xmlns="http://www.w3.org/2000/svg" width="620" height="80" viewBox="0 45 620 80" font-family="Times New Roman, Tinos, serif">
  <g fill="#fff" stroke="#333" stroke-width="1.5">
    <rect x="10"  y="55" width="110" height="60" rx="3"/>
    <rect x="180" y="55" width="110" height="60" rx="3"/>
    <rect x="350" y="55" width="110" height="60" rx="3"/>
    <rect x="500" y="55" width="110" height="60" rx="3"/>
  </g>
  <g fill="#222" font-size="15" text-anchor="middle">
    <text x="65"  y="90">Сбор</text>
    <text x="235" y="90">Хранение</text>
    <text x="405" y="90">Обработка</text>
    <text x="555" y="90">Архивация</text>
  </g>
  <g stroke="#333" stroke-width="1.5" fill="#333">
    <line x1="120" y1="85" x2="172" y2="85"/><polygon points="180,85 168,80 168,90"/>
    <line x1="290" y1="85" x2="342" y2="85"/><polygon points="350,85 338,80 338,90"/>
    <line x1="460" y1="85" x2="492" y2="85"/><polygon points="500,85 488,80 488,90"/>
  </g>
</svg>
